#!OML:ASF E:/inclinewalkrobotboard/Project1/Captureday1/Session1/subject1.ASF
:FULLY-SPECIFIED
:DEGREES
151
root 0 0 0 1.7929365799906052 -10.220262582070697 0.8992115053679732
lowerback 0.27756254174636363 -1.608665499226056 -2.6204135050152684
upperback -0.4430404362506939 -2.088492559811601 1.9975006932209673
thorax -0.5075832560837514 -1.049793239289569 3.4707587306991052
lowerneck -25.82043280839369 -1.763284070330195 -7.417100850644682
upperneck 23.125215007345048 0.013427842924027211 2.4299091792554273
head 12.021836793183725 -0.4765321571135239 2.257573614762885
rclavicle 2.7358729605473475E-15 -7.36826598922925E-16
rhumerus -33.42527958078281 -5.299167457813752 -79.45389097688097
rradius 29.387768708354614
rwrist 20.184558454281902
rhand -17.32875113636206 8.991294943918334
rfingers 7.125019999999938
rthumb 8.915611039469564 -20.7446991307084
lclavicle -3.2570421698311512E-15 2.4183352391907556E-15
lhumerus -23.53478132684806 -4.563173937968247 92.6970739103512
lradius 62.63586152197851
lwrist 2.8050453824724277
lhand -28.052123176549483 21.188126860369984
lfingers 7.125020000000009
lthumb -1.4653739060037578 51.21452421148005
rfemur -4.358612547270366 8.834695823542688 38.974409006370934
rtibia 16.644749639173448
rfoot -22.270760333608223 -8.802974554069667
rtoes 9.930778535771388
lfemur -18.650842487334685 2.647795451525843 -12.930560315886202
ltibia 58.30622831233516
lfoot 0.8072231744887652 -6.596514690711571
ltoes -9.320131389092921
152
root 0 0 0 1.7925630306075406 -10.227852989500432 0.9072475738822292
lowerback 0.21004882297534122 -1.5956136474268834 -2.640295024700307
upperback -0.4769753432895356 -2.0755341230130946 1.969938803130093
thorax -0.5082700841717414 -1.0397971770621994 3.4505559749716843
lowerneck -25.828526002766374 -1.8065184095133184 -7.449708077110349
upperneck 23.223094862530075 -0.05911915989126748 2.489485592947414
head 12.057513770051543 -0.5079497912938705 2.273943456967613
rclavicle 2.936388639794831E-15 -5.6706684727647275E-16
rhumerus -32.68198398204378 -4.853277727448598 -80.33491536078384
rradius 30.062593255608263
rwrist 19.651726656720456
rhand -17.47539235756222 9.117999845856485
rfingers 7.125019999999931
rthumb 8.77334395727883 -20.62021801168136
lclavicle -3.1287924744875813E-15 2.6964949043978294E-15
lhumerus -23.199349779839295 -4.052023309737701 92.66303680058289
lradius 62.523916544021816
lwrist 2.5369567963113298
lhand -28.236778991606357 21.053143578840206
lfingers 7.12502000000001
lthumb -1.6431949453605474 51.06674167549936
rfemur -0.7195117943114582 8.923455775275254 39.01293331205901
rtibia 17.17853732656846
rfoot -23.59129795753993 -8.561250862460504
rtoes 7.930827207876034
lfemur -22.22469449251727 2.875426606418255 -12.604615766269282
ltibia 57.70525132808862
lfoot -1.5716785808764513 -4.797472348557983
ltoes -8.21010628609624
153
root 0 0 0 1.8040174265165219 -10.233086027868028 0.9224456024492476
lowerback 0.12776019248944936 -1.5843111875280422 -2.664249759219879
upperback -0.49837248513536286 -2.066077706666987 1.9315725907593624
thorax -0.48750252764843705 -1.031661657967388 3.41980909884542
lowerneck -25.882747303555483 -1.8783770852277124 -7.496686000319921
upperneck 23.32522914778899 -0.1750214148425704 2.582229289404445
head 12.10149021068984 -0.5545464021487606 2.2985754588840033
rclavicle -1.465814329563542E-15 -7.124035671143536E-16
rhumerus -31.413982924455045 -3.173083560601887 -81.72739852234089
rradius 31.215441747314273
rwrist 18.77831367603704
rhand -17.924562178753636 9.266793630914101
rfingers 7.125019999999931
rthumb 8.33825930505429 -20.491251232480273
lclavicle -3.87959585724501E-15 2.643201712485874E-15
lhumerus -22.657393667344397 -3.1864442060113074 92.47580616174652
lradius 62.15644702036179
lwrist 2.3231616065549074
lhand -28.34416993644043 20.86462360572734
lfingers 7.125020000000009
lthumb -1.7485117578193163 50.86608994044969
rfemur 4.458254135377036 8.78917479176651 38.666640815200445
rtibia 19.935809608557157
rfoot -24.150100356431206 -8.037117008152485
rtoes 4.5984788514646215
lfemur -26.595469969039726 2.0820712900932046 -11.67267532323005
ltibia 51.61843786562599
lfoot -3.6607126867999726 -2.0314776595447555
ltoes -6.849327806128644
154
root 0 0 0 1.8100723690391642 -10.252841552621604 0.9313131245611022
lowerback 0.07354754011776965 -1.5825927424351927 -2.6755819949341926
upperback -0.5091108203186341 -2.0664362477183618 1.904610531354188
thorax -0.46969576278447833 -1.0301935124162624 3.3958388387305787
lowerneck -25.916527862175606 -1.916356091546673 -7.524548080952077
upperneck 23.445337869434063 -0.231282616319625 2.6158311201615554
head 12.148982472849468 -0.580654131463971 2.307853229733958
rclavicle -3.599025906755711E-15 -1.1961751280896299E-15
rhumerus -30.72553468196479 -1.5608409644041439 -82.30007896898637
rradius 31.786805599509233
rwrist 18.29281492299036
rhand -18.286102843664203 9.318899919279723
rfingers 7.125019999999936
rthumb 7.989441024539292 -20.453142752803686
lclavicle -4.800145510662018E-15 2.476824445276297E-15
lhumerus -22.34564998075082 -2.683865643529892 92.32113879717905
lradius 61.888745279885626
lwrist 2.291187445409241
lhand -28.331201170610512 20.77636559647814
lfingers 7.125020000000008
lthumb -1.7396413016317718 50.77472691088643
rfemur 8.34825202401258 8.695235545246605 38.2680245490168
rtibia 22.064235050352078
rfoot -23.793737082294133 -7.3281677258005296
rtoes 1.7523000033914515
lfemur -30.586259604935705 0.3608386628304694 -10.60255462278098
ltibia 41.30659128591826
lfoot -4.888351979445568 0.8432616944847209
ltoes -4.827910006100101
